<svg width="21" height="21" viewBox="0 0 21 21" fill="none" xmlns="http://www.w3.org/2000/svg">
<g id="Group 175281">
<path id="Vector" d="M6.2636 6.2636C6.61507 5.91213 7.18493 5.91213 7.5364 6.2636L10.5 9.22721L13.4637 6.26361C13.8151 5.91215 14.3849 5.91215 14.7364 6.26361C15.0879 6.61508 15.0879 7.18493 14.7364 7.5364L11.7729 10.5L14.7364 13.4636C15.0879 13.815 15.0879 14.3849 14.7364 14.7364C14.3849 15.0879 13.8151 15.0879 13.4637 14.7364L10.5 11.7728L7.53641 14.7364C7.18493 15.0879 6.61508 15.0879 6.26361 14.7364C5.91213 14.3849 5.91213 13.815 6.26361 13.4636L9.22717 10.5L6.2636 7.53639C5.91213 7.18492 5.91213 6.61508 6.2636 6.2636Z" fill="#E36464"/>
<path id="Vector_2" fill-rule="evenodd" clip-rule="evenodd" d="M4.69863 0.320081C8.52335 -0.106694 12.4767 -0.106694 16.3013 0.320081C18.5638 0.572524 20.3908 2.35176 20.657 4.6236C21.1143 8.52793 21.1143 12.4721 20.657 16.3764C20.3908 18.6482 18.5638 20.4275 16.3013 20.6799C12.4767 21.1067 8.52335 21.1067 4.69863 20.6799C2.43621 20.4275 0.609181 18.6482 0.343037 16.3764C-0.114346 12.4721 -0.114346 8.52793 0.343037 4.6236C0.609181 2.35176 2.43621 0.572524 4.69863 0.320081ZM16.0949 2.16372C12.4074 1.75224 8.59259 1.75224 4.90502 2.16372C3.48736 2.32189 2.35261 3.43898 2.18858 4.83911C1.74797 8.60016 1.74797 12.3998 2.18858 16.1608C2.35261 17.561 3.48736 18.6781 4.90502 18.8363C8.59259 19.2478 12.4074 19.2478 16.0949 18.8363C17.5127 18.6781 18.6474 17.561 18.8114 16.1608C19.252 12.3998 19.252 8.60016 18.8114 4.83911C18.6474 3.43898 17.5127 2.32189 16.0949 2.16372Z" fill="#E36464"/>
</g>
</svg>
