<svg width="18" height="19" viewBox="0 0 18 19" fill="none" xmlns="http://www.w3.org/2000/svg">
<path d="M17.3135 4.84276C17.2951 4.84276 17.2674 4.84276 17.2397 4.84276C12.3559 4.37439 7.48133 4.19765 2.65292 4.66602L0.769567 4.84276C0.381819 4.87811 0.0402314 4.613 0.00330295 4.24183C-0.0336255 3.87067 0.243338 3.55253 0.621854 3.51719L2.5052 3.34044C7.41671 2.86324 12.3928 3.04882 17.3781 3.51719C17.7567 3.55253 18.0336 3.87951 17.9967 4.24183C17.969 4.58648 17.6643 4.84276 17.3135 4.84276Z" fill="#DF4A4A"/>
<path d="M5.77268 3.95021C5.73575 3.95021 5.69883 3.95021 5.65267 3.94138C5.28338 3.87952 5.02488 3.53487 5.08951 3.18138L5.29261 2.02371C5.44033 1.17534 5.64343 0 7.79448 0H10.2133C12.3736 0 12.5767 1.21953 12.7152 2.03255L12.9183 3.18138C12.9829 3.5437 12.7244 3.88835 12.3551 3.94138C11.9766 4.00324 11.6166 3.7558 11.5612 3.40231L11.3581 2.25348C11.2288 1.48464 11.2011 1.33441 10.2225 1.33441H7.80371C6.82514 1.33441 6.80668 1.45813 6.6682 2.24464L6.45586 3.39347C6.40047 3.72045 6.10504 3.95021 5.77268 3.95021Z" fill="#DF4A4A"/>
<path d="M11.968 19.0001H6.04102C2.81902 19.0001 2.68977 17.2945 2.58821 15.9159L1.98813 7.01686C1.96043 6.65453 2.25586 6.3364 2.63437 6.30989C3.02212 6.29222 3.34525 6.56617 3.37294 6.92849L3.97303 15.8275C4.07458 17.1708 4.11151 17.6745 6.04102 17.6745H11.968C13.9068 17.6745 13.9437 17.1708 14.036 15.8275L14.6361 6.92849C14.6638 6.56617 14.9962 6.29222 15.3747 6.30989C15.7532 6.3364 16.0486 6.64569 16.0209 7.01686L15.4208 15.9159C15.3193 17.2945 15.19 19.0001 11.968 19.0001Z" fill="#DF4A4A"/>
<path d="M10.5367 14.1395H7.46245C7.08391 14.1395 6.77002 13.8391 6.77002 13.4768C6.77002 13.1144 7.08391 12.814 7.46245 12.814H10.5367C10.9153 12.814 11.2291 13.1144 11.2291 13.4768C11.2291 13.8391 10.9153 14.1395 10.5367 14.1395Z" fill="#DF4A4A"/>
<path d="M11.3109 10.6046H6.69485C6.31633 10.6046 6.00244 10.3042 6.00244 9.94184C6.00244 9.57952 6.31633 9.27905 6.69485 9.27905H11.3109C11.6894 9.27905 12.0033 9.57952 12.0033 9.94184C12.0033 10.3042 11.6894 10.6046 11.3109 10.6046Z" fill="#DF4A4A"/>
</svg>
