<svg width="19" height="19" viewBox="0 0 19 19" fill="none" xmlns="http://www.w3.org/2000/svg">
<path d="M17.3173 4.79726L9.24324 12.8712C8.43922 13.6753 6.05254 14.0476 5.51935 13.5145C4.98616 12.9813 5.35008 10.5946 6.1541 9.79059L14.2366 1.70812C14.4359 1.49066 14.6772 1.31586 14.946 1.19424C15.2147 1.07262 15.5053 1.0067 15.8003 1.00048C16.0952 0.994279 16.3883 1.04789 16.6619 1.15809C16.9356 1.26829 17.184 1.43282 17.3923 1.64169C17.6006 1.85057 17.7645 2.09947 17.8739 2.3734C17.9833 2.64733 18.0362 2.94058 18.0292 3.23549C18.0222 3.53039 17.9554 3.82085 17.8331 4.08926C17.7107 4.35768 17.5353 4.59854 17.3173 4.79726Z" stroke="#3B7FFC" stroke-width="1.3" stroke-linecap="round" stroke-linejoin="round"/>
<path d="M8.617 2.76611H4.38533C3.48748 2.76611 2.62647 3.12278 1.99159 3.75765C1.35672 4.39253 1 5.2536 1 6.15145V14.6148C1 15.5127 1.35672 16.3737 1.99159 17.0086C2.62647 17.6435 3.48748 18.0001 4.38533 18.0001H13.695C15.5654 18.0001 16.234 16.4767 16.234 14.6148V10.3831" stroke="#3B7FFC" stroke-width="1.3" stroke-linecap="round" stroke-linejoin="round"/>
</svg>
