<svg width="12" height="12" viewBox="0 0 12 12" fill="none" xmlns="http://www.w3.org/2000/svg">
<path d="M1 1.88889C1 1.57775 1 1.42218 1.06055 1.30334C1.11382 1.19881 1.19881 1.11382 1.30334 1.06055C1.42218 1 1.57775 1 1.88889 1H10.1111C10.4223 1 10.5778 1 10.6967 1.06055C10.8012 1.11382 10.8862 1.19881 10.9394 1.30334C11 1.42218 11 1.57775 11 1.88889V2.85403C11 2.98992 11 3.05786 10.9847 3.12179C10.9711 3.17848 10.9486 3.23267 10.9181 3.28238C10.8838 3.33844 10.8357 3.38649 10.7397 3.48257L7.37144 6.85078C7.27539 6.94683 7.22733 6.99489 7.193 7.05094C7.1625 7.10067 7.14006 7.15483 7.12644 7.21156C7.11111 7.2755 7.11111 7.34344 7.11111 7.47928V8.77778L4.88889 11V7.47928C4.88889 7.34344 4.88889 7.2755 4.87354 7.21156C4.85993 7.15483 4.83748 7.10067 4.80702 7.05094C4.77267 6.99489 4.72462 6.94683 4.62854 6.85078L1.26035 3.48257C1.16427 3.38649 1.11622 3.33844 1.08187 3.28238C1.05141 3.23267 1.02896 3.17848 1.01535 3.12179C1 3.05786 1 2.98992 1 2.85403V1.88889Z" stroke="#6A6A6A" stroke-linecap="round" stroke-linejoin="round"/>
</svg>
