<svg width="120" height="42" viewBox="0 0 120 42" fill="none" xmlns="http://www.w3.org/2000/svg">
<path d="M41.92 30V13.2H47.464C48.592 13.2 49.584 13.38 50.44 13.74C51.296 14.1 51.96 14.68 52.432 15.48C52.912 16.28 53.152 17.336 53.152 18.648C53.152 19.936 52.912 20.984 52.432 21.792C51.96 22.592 51.296 23.18 50.44 23.556C49.584 23.932 48.592 24.12 47.464 24.12H44.32V30H41.92ZM44.32 22.08H47.128C48.352 22.08 49.268 21.804 49.876 21.252C50.492 20.692 50.8 19.832 50.8 18.672C50.8 17.504 50.508 16.64 49.924 16.08C49.348 15.52 48.416 15.24 47.128 15.24H44.32V22.08ZM63.9344 30.336C62.3344 30.336 60.9104 29.98 59.6624 29.268C58.4144 28.548 57.4344 27.536 56.7224 26.232C56.0104 24.92 55.6544 23.376 55.6544 21.6C55.6544 19.824 56.0104 18.284 56.7224 16.98C57.4344 15.668 58.4144 14.656 59.6624 13.944C60.9104 13.224 62.3344 12.864 63.9344 12.864C65.5344 12.864 66.9584 13.224 68.2064 13.944C69.4544 14.656 70.4344 15.668 71.1464 16.98C71.8584 18.284 72.2144 19.824 72.2144 21.6C72.2144 23.376 71.8584 24.92 71.1464 26.232C70.4344 27.536 69.4544 28.548 68.2064 29.268C66.9584 29.98 65.5344 30.336 63.9344 30.336ZM63.9344 28.128C65.2224 28.128 66.2984 27.84 67.1624 27.264C68.0264 26.68 68.6744 25.896 69.1064 24.912C69.5464 23.92 69.7664 22.816 69.7664 21.6C69.7664 20.384 69.5464 19.284 69.1064 18.3C68.6744 17.308 68.0264 16.524 67.1624 15.948C66.2984 15.364 65.2224 15.072 63.9344 15.072C62.6464 15.072 61.5704 15.364 60.7064 15.948C59.8424 16.524 59.1904 17.308 58.7504 18.3C58.3184 19.284 58.1024 20.384 58.1024 21.6C58.1024 22.816 58.3184 23.92 58.7504 24.912C59.1904 25.896 59.8424 26.68 60.7064 27.264C61.5704 27.84 62.6464 28.128 63.9344 28.128ZM76.0431 30V13.2H78.3231V27.936H86.0271V30H76.0431ZM95.3727 30.336C93.7967 30.336 92.4927 30.036 91.4607 29.436C90.4367 28.828 89.6727 27.968 89.1687 26.856C88.6647 25.736 88.4127 24.408 88.4127 22.872V13.2H90.6927V22.248C90.6927 23.016 90.7527 23.76 90.8727 24.48C90.9927 25.2 91.2127 25.844 91.5327 26.412C91.8607 26.98 92.3327 27.432 92.9487 27.768C93.5727 28.104 94.3807 28.272 95.3727 28.272C96.3727 28.272 97.1807 28.104 97.7967 27.768C98.4127 27.432 98.8807 26.98 99.2007 26.412C99.5287 25.836 99.7527 25.188 99.8727 24.468C99.9927 23.748 100.053 23.008 100.053 22.248V13.2H102.333V22.872C102.333 24.408 102.081 25.736 101.577 26.856C101.073 27.968 100.305 28.828 99.2727 29.436C98.2487 30.036 96.9487 30.336 95.3727 30.336ZM111.732 30.336C111.036 30.336 110.34 30.284 109.644 30.18C108.948 30.076 108.304 29.944 107.712 29.784C107.12 29.616 106.628 29.44 106.236 29.256L106.548 26.832C106.98 27.04 107.5 27.256 108.108 27.48C108.724 27.704 109.388 27.892 110.1 28.044C110.812 28.196 111.532 28.272 112.26 28.272C113.34 28.272 114.196 28.076 114.828 27.684C115.468 27.284 115.788 26.664 115.788 25.824C115.788 25.192 115.628 24.676 115.308 24.276C114.988 23.868 114.504 23.52 113.856 23.232C113.216 22.944 112.412 22.656 111.444 22.368C110.524 22.096 109.676 21.776 108.9 21.408C108.124 21.032 107.5 20.532 107.028 19.908C106.564 19.276 106.332 18.44 106.332 17.4C106.332 16.512 106.56 15.728 107.016 15.048C107.48 14.36 108.156 13.824 109.044 13.44C109.94 13.056 111.036 12.864 112.332 12.864C113.436 12.864 114.448 12.984 115.368 13.224C116.296 13.464 117.06 13.728 117.66 14.016L117.42 16.44C116.508 15.896 115.636 15.508 114.804 15.276C113.98 15.044 113.124 14.928 112.236 14.928C111.252 14.928 110.436 15.112 109.788 15.48C109.148 15.848 108.828 16.448 108.828 17.28C108.828 17.84 108.972 18.3 109.26 18.66C109.548 19.012 109.976 19.316 110.544 19.572C111.112 19.82 111.82 20.072 112.668 20.328C113.836 20.68 114.84 21.084 115.68 21.54C116.52 21.988 117.164 22.544 117.612 23.208C118.06 23.864 118.284 24.68 118.284 25.656C118.284 26.376 118.148 27.024 117.876 27.6C117.604 28.176 117.196 28.668 116.652 29.076C116.108 29.484 115.424 29.796 114.6 30.012C113.784 30.228 112.828 30.336 111.732 30.336Z" fill="#3D619B"/>
<rect y="3" width="35" height="36" rx="4" fill="#3D619B"/>
<rect x="3.75" y="6.75" width="27.5" height="28.5" rx="1.25" stroke="white" stroke-width="1.5"/>
<path d="M25.716 17.672C25.716 18.8107 25.4547 19.856 24.932 20.808C24.4093 21.7413 23.6067 22.4973 22.524 23.076C21.4413 23.6547 20.0973 23.944 18.492 23.944H15.524V31H10.736V11.344H18.492C20.06 11.344 21.3853 11.6147 22.468 12.156C23.5507 12.6973 24.3627 13.444 24.904 14.396C25.4453 15.348 25.716 16.44 25.716 17.672ZM18.128 20.136C19.0427 20.136 19.724 19.9213 20.172 19.492C20.62 19.0627 20.844 18.456 20.844 17.672C20.844 16.888 20.62 16.2813 20.172 15.852C19.724 15.4227 19.0427 15.208 18.128 15.208H15.524V20.136H18.128Z" fill="white"/>
</svg>
