<svg width="20" height="20" viewBox="0 0 20 20" fill="none" xmlns="http://www.w3.org/2000/svg">
<g id="Page-1">
<g id="Icon-Set-Filled">
<path id="save-floppy" fill-rule="evenodd" clip-rule="evenodd" d="M11.25 3.125C11.25 2.77938 11.53 2.5 11.875 2.5C12.22 2.5 12.5 2.77938 12.5 3.125V5.625C12.5 5.97062 12.22 6.25 11.875 6.25C11.53 6.25 11.25 5.97062 11.25 5.625V3.125ZM5.625 7.5H14.375C14.72 7.5 15 7.22062 15 6.875V0H5V6.875C5 7.22062 5.28 7.5 5.625 7.5ZM17.5 0H16.25V7.5C16.25 8.19 15.69 8.75 15 8.75H5C4.31 8.75 3.75 8.19 3.75 7.5V0H2.5C1.11937 0 0 1.11937 0 2.5V17.5C0 18.8806 1.11937 20 2.5 20H17.5C18.8806 20 20 18.8806 20 17.5V2.5C20 1.11937 18.8806 0 17.5 0Z" fill="#7ABADE"/>
</g>
</g>
</svg>
