<svg width="18" height="20" viewBox="0 0 18 20" fill="none" xmlns="http://www.w3.org/2000/svg">
<g id="Group 175255">
<path id="Vector" d="M10.6254 14.3752H6.87548C6.72318 14.3751 6.57613 14.3195 6.46197 14.2187C6.34781 14.1179 6.27439 13.9788 6.2555 13.8277L6.2055 13.4258C5.97058 11.8208 5.30806 10.3086 4.28744 9.04784C3.81652 8.4338 3.47737 7.72921 3.2912 6.97811C3.10502 6.22702 3.07583 5.44559 3.20544 4.6827C3.33505 3.91981 3.62068 3.19187 4.04446 2.5444C4.46824 1.89694 5.02106 1.34388 5.66834 0.919818C6.31562 0.495755 7.04344 0.209812 7.80627 0.0798703C8.56911 -0.050071 9.35055 -0.0212142 10.1017 0.164636C10.8529 0.350486 11.5576 0.689331 12.1719 1.15998C12.7861 1.63063 13.2966 2.22295 13.6715 2.89991C13.7143 2.9718 13.7422 3.05155 13.7536 3.13442C13.7649 3.2173 13.7596 3.30161 13.7377 3.38237C13.7159 3.46313 13.6781 3.53868 13.6266 3.60456C13.575 3.67044 13.5108 3.7253 13.4376 3.76589C13.3645 3.80648 13.2839 3.83197 13.2008 3.84085C13.1176 3.84974 13.0335 3.84184 12.9534 3.81761C12.8733 3.79339 12.7989 3.75334 12.7346 3.69984C12.6703 3.64633 12.6174 3.58047 12.5791 3.50614C12.2874 2.97988 11.8904 2.51943 11.4128 2.15357C10.9352 1.7877 10.3872 1.52429 9.80315 1.37979C9.21911 1.23529 8.61153 1.21281 8.01841 1.31376C7.42529 1.4147 6.85936 1.6369 6.356 1.96647C5.85264 2.29604 5.42267 2.72589 5.09296 3.22916C4.76325 3.73243 4.5409 4.29829 4.43979 4.89139C4.33868 5.48449 4.36099 6.09206 4.50532 6.67615C4.64966 7.26023 4.91293 7.80826 5.27866 8.28599C6.40291 9.685 7.14305 11.3529 7.42609 13.1252H10.0748C10.3253 11.3801 11.0451 9.73584 12.1572 8.36786C12.7873 7.59319 13.1295 6.62404 13.1253 5.62545C13.1253 5.45969 13.1911 5.30073 13.3083 5.18352C13.4255 5.06631 13.5845 5.00047 13.7503 5.00047C13.916 5.00047 14.075 5.06631 14.1922 5.18352C14.3094 5.30073 14.3752 5.45969 14.3752 5.62545C14.3741 6.90871 13.9349 8.15313 13.1303 9.15284C12.1332 10.3775 11.4979 11.8564 11.296 13.4227L11.2453 13.8277C11.2265 13.9788 11.153 14.1179 11.0389 14.2187C10.9247 14.3195 10.7777 14.3751 10.6254 14.3752Z" fill="#060606"/>
<path id="Vector_2" d="M12.4997 16.8751H4.99998C4.83423 16.8751 4.67526 16.8093 4.55805 16.6921C4.44085 16.5749 4.375 16.4159 4.375 16.2501V15.0002C4.375 14.5029 4.57254 14.026 4.92416 13.6744C5.27578 13.3228 5.75268 13.1252 6.24994 13.1252H11.2498C11.7471 13.1252 12.2239 13.3228 12.5756 13.6744C12.9272 14.026 13.1247 14.5029 13.1247 15.0002V16.2501C13.1247 16.4159 13.0589 16.5749 12.9417 16.6921C12.8245 16.8093 12.6655 16.8751 12.4997 16.8751ZM5.62496 15.6252H11.8748V15.0002C11.8748 14.8344 11.8089 14.6755 11.6917 14.5583C11.5745 14.4411 11.4155 14.3752 11.2498 14.3752H6.24994C6.08419 14.3752 5.92522 14.4411 5.80801 14.5583C5.69081 14.6755 5.62496 14.8344 5.62496 15.0002V15.6252Z" fill="#060606"/>
<path id="Vector_3" d="M16.8745 18.75H16.2495V17.5001C16.2495 17.0028 16.052 16.5259 15.7003 16.1743C15.3487 15.8227 14.8718 15.6251 14.3746 15.6251H3.1249C2.62764 15.6251 2.15074 15.8227 1.79912 16.1743C1.4475 16.5259 1.24996 17.0028 1.24996 17.5001V18.75H0.624981C0.459225 18.75 0.300259 18.8159 0.183053 18.9331C0.0658459 19.0503 0 19.2092 0 19.375C0 19.5408 0.0658459 19.6997 0.183053 19.8169C0.300259 19.9341 0.459225 20 0.624981 20H4.37486C4.54062 20 4.69958 19.9341 4.81679 19.8169C4.934 19.6997 4.99984 19.5408 4.99984 19.375C4.99984 19.2092 4.934 19.0503 4.81679 18.9331C4.69958 18.8159 4.54062 18.75 4.37486 18.75H2.49992V17.5001C2.49992 17.3343 2.56577 17.1753 2.68297 17.0581C2.80018 16.9409 2.95915 16.8751 3.1249 16.8751H14.3746C14.5403 16.8751 14.6993 16.9409 14.8165 17.0581C14.9337 17.1753 14.9995 17.3343 14.9995 17.5001V18.75H6.87479C6.70903 18.75 6.55006 18.8159 6.43286 18.9331C6.31565 19.0503 6.2498 19.2092 6.2498 19.375C6.2498 19.5408 6.31565 19.6997 6.43286 19.8169C6.55006 19.9341 6.70903 20 6.87479 20H16.8745C17.0402 20 17.1992 19.9341 17.3164 19.8169C17.4336 19.6997 17.4995 19.5408 17.4995 19.375C17.4995 19.2092 17.4336 19.0503 17.3164 18.9331C17.1992 18.8159 17.0402 18.75 16.8745 18.75Z" fill="#060606"/>
</g>
</svg>
