<svg width="22" height="24" viewBox="0 0 22 24" fill="none" xmlns="http://www.w3.org/2000/svg">
<path d="M11.0001 14.7887C12.7574 14.7887 14.182 13.3641 14.182 11.6068C14.182 9.84942 12.7574 8.4248 11.0001 8.4248C9.24273 8.4248 7.81812 9.84942 7.81812 11.6068C7.81812 13.3641 9.24273 14.7887 11.0001 14.7887Z" stroke="#060606" stroke-width="2"/>
<path d="M2.15552 10.1632C2.65673 10.4781 2.97922 11.0146 2.97922 11.6064C2.97921 12.1984 2.65672 12.7348 2.15552 13.0498C1.81445 13.264 1.59471 13.4353 1.43837 13.639C1.09587 14.0855 0.944719 14.6495 1.01816 15.2073C1.07323 15.6257 1.32033 16.0536 1.81453 16.9097C2.30874 17.7656 2.55584 18.1936 2.89059 18.4505C3.33693 18.793 3.90105 18.9441 4.45885 18.8707C4.71344 18.8372 4.97161 18.7325 5.32765 18.5444C5.85106 18.2677 6.477 18.2567 6.98968 18.5527C7.50232 18.8488 7.80566 19.3963 7.82778 19.9878C7.84284 20.3903 7.8813 20.6663 7.97958 20.9036C8.19488 21.4233 8.60785 21.8363 9.12759 22.0516C9.51748 22.213 10.0116 22.213 11.0001 22.213C11.9885 22.213 12.4826 22.213 12.8725 22.0516C13.3923 21.8363 13.8053 21.4233 14.0206 20.9036C14.1188 20.6663 14.1573 20.3903 14.1724 19.9879C14.1944 19.3963 14.4978 18.8488 15.0105 18.5527C15.5231 18.2568 16.149 18.2678 16.6723 18.5445C17.0285 18.7326 17.2867 18.8373 17.5412 18.8708C18.099 18.9443 18.6632 18.7931 19.1095 18.4506C19.4442 18.1938 19.6914 17.7657 20.1856 16.9098C20.4056 16.5287 20.5767 16.2324 20.7035 15.984M19.8445 13.0499C19.3434 12.7349 19.0209 12.1985 19.0208 11.6066C19.0208 11.0147 19.3434 10.4781 19.8445 10.1632C20.1856 9.94893 20.4053 9.77764 20.5616 9.57389C20.9041 9.12754 21.0553 8.56343 20.9819 8.00563C20.9268 7.58729 20.6797 7.15929 20.1854 6.30331C19.6913 5.44733 19.4441 5.01934 19.1094 4.76247C18.6631 4.41998 18.0989 4.26882 17.5411 4.34225C17.2865 4.37578 17.0284 4.48042 16.6723 4.66862C16.1489 4.94524 15.523 4.95628 15.0104 4.66027C14.4978 4.36428 14.1944 3.81677 14.1724 3.22528C14.1573 2.82275 14.1188 2.5468 14.0206 2.30951C13.8053 1.78974 13.3923 1.37678 12.8725 1.16147C12.4826 1 11.9885 1 11.0001 1C10.0116 1 9.51748 1 9.12759 1.16147C8.60785 1.37678 8.19488 1.78974 7.97958 2.30951C7.8813 2.54678 7.84284 2.82271 7.82778 3.22518C7.80565 3.81673 7.5023 4.36429 6.98964 4.66027C6.47698 4.95625 5.8511 4.94519 5.32775 4.66858C4.97166 4.48038 4.71347 4.37573 4.45886 4.3422C3.90106 4.26877 3.33695 4.41992 2.8906 4.76242C2.55585 5.01929 2.30875 5.44728 1.81454 6.30326C1.59453 6.68434 1.42349 6.98058 1.29656 7.22892" stroke="#060606" stroke-width="2" stroke-linecap="round"/>
</svg>
