<svg width="35" height="42" viewBox="0 0 35 42" fill="none" xmlns="http://www.w3.org/2000/svg">
<rect y="3" width="35" height="36" rx="4" fill="#3D619B"/>
<rect x="3.75" y="6.75" width="27.5" height="28.5" rx="1.25" stroke="white" stroke-width="1.5"/>
<path d="M25.716 17.672C25.716 18.8107 25.4547 19.856 24.932 20.808C24.4093 21.7413 23.6067 22.4973 22.524 23.076C21.4413 23.6547 20.0973 23.944 18.492 23.944H15.524V31H10.736V11.344H18.492C20.06 11.344 21.3853 11.6147 22.468 12.156C23.5507 12.6973 24.3627 13.444 24.904 14.396C25.4453 15.348 25.716 16.44 25.716 17.672ZM18.128 20.136C19.0427 20.136 19.724 19.9213 20.172 19.492C20.62 19.0627 20.844 18.456 20.844 17.672C20.844 16.888 20.62 16.2813 20.172 15.852C19.724 15.4227 19.0427 15.208 18.128 15.208H15.524V20.136H18.128Z" fill="white"/>
</svg>
