<svg width="15" height="25" viewBox="0 0 15 25" fill="none" xmlns="http://www.w3.org/2000/svg">
<path d="M7.45403 0.000137462C3.73111 0.0230102 0.526271 2.91607 0.0587299 6.66195C-0.0503025 7.53691 -0.00303879 8.38648 0.163361 9.18614C0.164017 9.19004 0.164714 9.19394 0.165453 9.19782L2.52592 19.3943C2.69629 20.1279 3.34787 20.6522 4.0912 20.6522H5.35723V25H6.42865V20.6522H8.57149V25H9.64291V20.6522H10.9414C11.6871 20.6522 12.3404 20.1252 12.5077 19.388L14.8713 8.97385C14.8732 8.9654 14.875 8.95691 14.8765 8.94837C14.9523 8.51837 15 8.07132 15 7.60879C15 3.39767 11.6103 -0.0249888 7.45403 0.000137462ZM7.46031 1.08709C11.0354 1.06548 13.9286 3.98735 13.9286 7.60879C13.9286 7.99484 13.8881 8.37467 13.8219 8.752V8.75625L13.3406 10.875C12.1878 10.9041 11.25 11.8675 11.25 13.0435C11.25 13.8798 11.7227 14.607 12.4114 14.9701L11.4635 19.1438C11.4068 19.3936 11.1943 19.5652 10.9414 19.5652H9.64291H8.57149H6.42865H5.35723H4.0912C3.83918 19.5652 3.62694 19.395 3.56909 19.146L1.21176 8.96111C1.06852 8.27274 1.02831 7.54892 1.12178 6.79889C1.52102 3.60024 4.2833 1.10661 7.46031 1.08709ZM7.4917 2.16661C7.418 2.16781 7.34533 2.18444 7.27825 2.21544C5.83966 2.27818 4.58278 2.92635 3.65489 3.92229C3.56173 3.95596 3.47957 4.01514 3.41753 4.09326C3.35547 4.17139 3.31595 4.26541 3.30333 4.36492C2.7575 5.08887 2.32476 5.90395 2.19424 6.84877V6.85196C2.19274 6.86325 2.19161 6.876 2.19006 6.89017V6.89123C2.08595 7.84825 2.84193 8.69468 3.78777 8.69468H11.1747C11.1872 8.69548 11.1998 8.69584 11.2124 8.69574C12.1332 8.69574 12.8887 7.89339 12.8153 6.9528V6.95174C12.8119 6.90712 12.8075 6.86741 12.8028 6.83179V6.82861C12.6697 5.8907 12.2376 5.08203 11.6947 4.3628C11.6817 4.26454 11.6425 4.17175 11.5813 4.09447C11.52 4.0172 11.4391 3.95839 11.3473 3.92441C10.4191 2.92705 9.16082 2.27794 7.72084 2.21544C7.64894 2.18222 7.57069 2.16555 7.4917 2.16661ZM6.97273 3.35971C6.99432 3.48584 7.05911 3.6002 7.15568 3.68262C7.25225 3.76504 7.37439 3.81024 7.50059 3.81024C7.62679 3.81024 7.74894 3.76504 7.8455 3.68262C7.94207 3.6002 8.00686 3.48584 8.02845 3.35971C8.93964 3.47758 9.76532 3.83574 10.4036 4.43816L10.4015 4.44029C10.3063 4.53501 10.2493 4.66233 10.2418 4.79738C10.2342 4.93243 10.2765 5.06549 10.3605 5.17057C10.4444 5.27564 10.564 5.34519 10.6958 5.3656C10.8276 5.38602 10.9622 5.35585 11.0732 5.28098C11.3983 5.79314 11.6525 6.35292 11.7418 6.98252C11.7434 6.99459 11.7452 7.01251 11.747 7.03666V7.03772C11.7715 7.34797 11.5295 7.60632 11.2145 7.60773H11.2124H8.41977C8.32611 7.44713 8.19421 7.31298 8.03578 7.21817V5.43489C8.03678 5.36287 8.02367 5.29137 7.9972 5.22454C7.97072 5.15771 7.93142 5.09689 7.88158 5.0456C7.83173 4.99431 7.77234 4.95358 7.70684 4.92579C7.64135 4.89799 7.57106 4.88367 7.50007 4.88367C7.42907 4.88367 7.35879 4.89799 7.29329 4.92579C7.2278 4.95358 7.1684 4.99431 7.11856 5.0456C7.06871 5.09689 7.02941 5.15771 7.00294 5.22454C6.97647 5.29137 6.96336 5.36287 6.96436 5.43489V7.21817C6.80593 7.31298 6.67403 7.44713 6.58036 7.60773H3.78777C3.46435 7.60773 3.21965 7.33411 3.25415 7.01118V7.01012C3.25457 7.00632 3.25582 7.00298 3.25625 6.9995C3.34416 6.36311 3.60072 5.79785 3.92902 5.28098C4.04031 5.3549 4.17473 5.38418 4.30612 5.36312C4.43751 5.34205 4.55649 5.27216 4.63989 5.16702C4.72329 5.06189 4.76515 4.92904 4.75734 4.79432C4.74953 4.6596 4.69259 4.53265 4.59761 4.43816L4.59657 4.4371C5.23486 3.83493 6.06155 3.47738 6.97273 3.35971ZM5.34886 11.4057C5.20696 11.4079 5.07175 11.4672 4.97288 11.5705C4.87401 11.6738 4.81958 11.8126 4.82152 11.9566V15.2174C4.82052 15.2895 4.83363 15.361 4.8601 15.4278C4.88658 15.4946 4.92588 15.5555 4.97572 15.6067C5.02556 15.658 5.08496 15.6988 5.15045 15.7265C5.21595 15.7543 5.28624 15.7687 5.35723 15.7687C5.42823 15.7687 5.49851 15.7543 5.56401 15.7265C5.6295 15.6988 5.6889 15.658 5.73874 15.6067C5.78859 15.5555 5.82789 15.4946 5.85436 15.4278C5.88083 15.361 5.89394 15.2895 5.89294 15.2174V11.9566C5.89392 11.8839 5.88051 11.8117 5.8535 11.7444C5.8265 11.677 5.78644 11.6158 5.7357 11.5644C5.68497 11.5131 5.62459 11.4726 5.55814 11.4453C5.4917 11.418 5.42053 11.4046 5.34886 11.4057ZM13.0842 12.0075L12.6678 13.8407C12.4563 13.6432 12.3215 13.3624 12.3215 13.0435C12.3215 12.5468 12.641 12.1406 13.0842 12.0075Z" fill="#3D619B"/>
</svg>
